HIERARCHY
ROOT reference
{
  OFFSET 0 0 0
  CHANNELS 6 Xposition Yposition Zposition Zrotation Xrotation Yrotation
  JOINT Hips
  {
    OFFSET 370.543 87.5 183.721
    CHANNELS 3 Zrotation Xrotation Yrotation
    JOINT RightUpLeg
    {
      OFFSET -9.29072 -1.53718 -0.00769521
      CHANNELS 3 Zrotation Xrotation Yrotation
      JOINT RightLeg
      {
        OFFSET 0.000649198 -41.8926 0.0287464
        CHANNELS 3 Zrotation Xrotation Yrotation
        JOINT RightFoot
        {
          OFFSET -0.131981 -42.8927 0.241786
          CHANNELS 3 Zrotation Xrotation Yrotation
          End Site
          {
            OFFSET 0 -7.69 17.5
          }
        }
      }
    }
    JOINT LeftUpLeg
    {
      OFFSET 9.29816 -1.6623 -0.0330144
      CHANNELS 3 Zrotation Xrotation Yrotation
      JOINT LeftLeg
      {
        OFFSET 0.0555409 -41.8801 -0.0492089
        CHANNELS 3 Zrotation Xrotation Yrotation
        JOINT LeftFoot
        {
          OFFSET 0.737583 -41.1094 -0.206555
          CHANNELS 3 Zrotation Xrotation Yrotation
          End Site
          {
            OFFSET 0 -7.69 17.5
          }
        }
      }
    }
    JOINT Spine
    {
      OFFSET 0.0742767 14.2946 0.0485675
      CHANNELS 3 Zrotation Xrotation Yrotation
      JOINT Spine1
      {
        OFFSET 0.0332084 9.70841 0.0159593
        CHANNELS 3 Zrotation Xrotation Yrotation
        JOINT Spine2
        {
          OFFSET 0.0388468 10.1231 0.00288192
          CHANNELS 3 Zrotation Xrotation Yrotation
          JOINT Spine3
          {
            OFFSET 0.0300771 9.71993 0.00776905
            CHANNELS 3 Zrotation Xrotation Yrotation
            JOINT Neck
            {
              OFFSET 0.058413 10.382 0.0516165
              CHANNELS 3 Zrotation Xrotation Yrotation
              JOINT Head
              {
                OFFSET 0.0298281 9.47849 0.0268718
                CHANNELS 3 Zrotation Xrotation Yrotation
                End Site
                {
                  OFFSET 0 15.95 0
                }
              }
            }
            JOINT RightShoulder
            {
              OFFSET -3.15612 6.91385 0.0353801
              CHANNELS 3 Zrotation Xrotation Yrotation
              JOINT RightArm
              {
                OFFSET -12.7781 -0.0057607 0.0332486
                CHANNELS 3 Zrotation Xrotation Yrotation
                JOINT RightForeArm
                {
                  OFFSET -26.4999 -0.0425897 0.0409183
                  CHANNELS 3 Zrotation Xrotation Yrotation
                  JOINT RightHand
                  {
                    OFFSET -25.993 -0.0294641 0.00108206
                    CHANNELS 3 Zrotation Xrotation Yrotation
                    JOINT RightHandThumb1
                    {
                      OFFSET -2.48905 0.190105 3.12053
                      CHANNELS 3 Zrotation Xrotation Yrotation
                      JOINT RightHandThumb2
                      {
                        OFFSET -3.68274 0 0
                        CHANNELS 3 Zrotation Xrotation Yrotation
                        JOINT RightHandThumb3
                        {
                          OFFSET -2.55832 0 0
                          CHANNELS 3 Zrotation Xrotation Yrotation
                          End Site
                          {
                            OFFSET -2.194 0 0
                          }
                        }
                      }
                    }
                    JOINT RightInHandIndex
                    {
                      OFFSET -3.22368 0.508421 1.97842
                      CHANNELS 3 Zrotation Xrotation Yrotation
                      JOINT RightHandIndex1
                      {
                        OFFSET -5.21684 -0.091368 0.999158
                        CHANNELS 3 Zrotation Xrotation Yrotation
                        JOINT RightHandIndex2
                        {
                          OFFSET -3.61937 0 0
                          CHANNELS 3 Zrotation Xrotation Yrotation
                          JOINT RightHandIndex3
                          {
                            OFFSET -2.0521 0 0
                            CHANNELS 3 Zrotation Xrotation Yrotation
                            End Site
                            {
                              OFFSET -1.805 0 0
                            }
                          }
                        }
                      }
                    }
                    JOINT RightInHandMiddle
                    {
                      OFFSET -3.38211 0.517263 0.756737
                      CHANNELS 3 Zrotation Xrotation Yrotation
                      JOINT RightHandMiddle1
                      {
                        OFFSET -5.17411 -0.084 0.313895
                        CHANNELS 3 Zrotation Xrotation Yrotation
                        JOINT RightHandMiddle2
                        {
                          OFFSET -3.94947 0 0
                          CHANNELS 3 Zrotation Xrotation Yrotation
                          JOINT RightHandMiddle3
                          {
                            OFFSET -2.47579 0 0
                            CHANNELS 3 Zrotation Xrotation Yrotation
                            End Site
                            {
                              OFFSET -1.975 0 0
                            }
                          }
                        }
                      }
                    }
                    JOINT RightInHandRing
                    {
                      OFFSET -3.36516 0.537895 -0.128947
                      CHANNELS 3 Zrotation Xrotation Yrotation
                      JOINT RightHandRing1
                      {
                        OFFSET -4.63474 -0.022105 -0.478947
                        CHANNELS 3 Zrotation Xrotation Yrotation
                        JOINT RightHandRing2
                        {
                          OFFSET -3.44238 0 0
                          CHANNELS 3 Zrotation Xrotation Yrotation
                          JOINT RightHandRing3
                          {
                            OFFSET -2.3881 0 0
                            CHANNELS 3 Zrotation Xrotation Yrotation
                            End Site
                            {
                              OFFSET -1.857 0 0
                            }
                          }
                        }
                      }
                    }
                    JOINT RightInHandPinky
                    {
                      OFFSET -3.16105 0.469368 -1.20179
                      CHANNELS 3 Zrotation Xrotation Yrotation
                      JOINT RightHandPinky1
                      {
                        OFFSET -4.14105 -0.022105 -1.09053
                        CHANNELS 3 Zrotation Xrotation Yrotation
                        JOINT RightHandPinky2
                        {
                          OFFSET -2.75653 0 0
                          CHANNELS 3 Zrotation Xrotation Yrotation
                          JOINT RightHandPinky3
                          {
                            OFFSET -1.74189 0 0
                            CHANNELS 3 Zrotation Xrotation Yrotation
                            End Site
                            {
                              OFFSET -1.645 0 0
                            }
                          }
                        }
                      }
                    }
                  }
                }
              }
            }
            JOINT LeftShoulder
            {
              OFFSET 3.24463 6.9123 -0.0189685
              CHANNELS 3 Zrotation Xrotation Yrotation
              JOINT LeftArm
              {
                OFFSET 12.8793 -0.0485389 -0.0634723
                CHANNELS 3 Zrotation Xrotation Yrotation
                JOINT LeftForeArm
                {
                  OFFSET 26.4894 0.00252616 -0.136149
                  CHANNELS 3 Zrotation Xrotation Yrotation
                  JOINT LeftHand
                  {
                    OFFSET 26.005 0.0292639 -0.0166184
                    CHANNELS 3 Zrotation Xrotation Yrotation
                    JOINT LeftHandThumb1
                    {
                      OFFSET 2.48905 0.190105 3.12053
                      CHANNELS 3 Zrotation Xrotation Yrotation
                      JOINT LeftHandThumb2
                      {
                        OFFSET 3.68274 0 0
                        CHANNELS 3 Zrotation Xrotation Yrotation
                        JOINT LeftHandThumb3
                        {
                          OFFSET 2.55832 0 0
                          CHANNELS 3 Zrotation Xrotation Yrotation
                          End Site
                          {
                            OFFSET 2.194 0 0
                          }
                        }
                      }
                    }
                    JOINT LeftInHandIndex
                    {
                      OFFSET 3.22368 0.508421 1.97842
                      CHANNELS 3 Zrotation Xrotation Yrotation
                      JOINT LeftHandIndex1
                      {
                        OFFSET 5.21684 -0.091368 0.999158
                        CHANNELS 3 Zrotation Xrotation Yrotation
                        JOINT LeftHandIndex2
                        {
                          OFFSET 3.61937 0 0
                          CHANNELS 3 Zrotation Xrotation Yrotation
                          JOINT LeftHandIndex3
                          {
                            OFFSET 2.0521 0 0
                            CHANNELS 3 Zrotation Xrotation Yrotation
                            End Site
                            {
                              OFFSET 1.805 0 0
                            }
                          }
                        }
                      }
                    }
                    JOINT LeftInHandMiddle
                    {
                      OFFSET 3.38211 0.517263 0.756737
                      CHANNELS 3 Zrotation Xrotation Yrotation
                      JOINT LeftHandMiddle1
                      {
                        OFFSET 5.17411 -0.084 0.313895
                        CHANNELS 3 Zrotation Xrotation Yrotation
                        JOINT LeftHandMiddle2
                        {
                          OFFSET 3.94947 0 0
                          CHANNELS 3 Zrotation Xrotation Yrotation
                          JOINT LeftHandMiddle3
                          {
                            OFFSET 2.47579 0 0
                            CHANNELS 3 Zrotation Xrotation Yrotation
                            End Site
                            {
                              OFFSET 1.975 0 0
                            }
                          }
                        }
                      }
                    }
                    JOINT LeftInHandRing
                    {
                      OFFSET 3.36516 0.537895 -0.128947
                      CHANNELS 3 Zrotation Xrotation Yrotation
                      JOINT LeftHandRing1
                      {
                        OFFSET 4.63474 -0.022105 -0.478947
                        CHANNELS 3 Zrotation Xrotation Yrotation
                        JOINT LeftHandRing2
                        {
                          OFFSET 3.44238 0 0
                          CHANNELS 3 Zrotation Xrotation Yrotation
                          JOINT LeftHandRing3
                          {
                            OFFSET 2.3881 0 0
                            CHANNELS 3 Zrotation Xrotation Yrotation
                            End Site
                            {
                              OFFSET 1.857 0 0
                            }
                          }
                        }
                      }
                    }
                    JOINT LeftInHandPinky
                    {
                      OFFSET 3.16105 0.469368 -1.20179
                      CHANNELS 3 Zrotation Xrotation Yrotation
                      JOINT LeftHandPinky1
                      {
                        OFFSET 4.14105 -0.022105 -1.09053
                        CHANNELS 3 Zrotation Xrotation Yrotation
                        JOINT LeftHandPinky2
                        {
                          OFFSET 2.75653 0 0
                          CHANNELS 3 Zrotation Xrotation Yrotation
                          JOINT LeftHandPinky3
                          {
                            OFFSET 1.74189 0 0
                            CHANNELS 3 Zrotation Xrotation Yrotation
                            End Site
                            {
                              OFFSET 1.645 0 0
                            }
                          }
                        }
                      }
                    }
                  }
                }
              }
            }
          }
        }
      }
    }
  }
}
MOTION
Frames: 2
Frame Time: 0.00833333
6.000000000000000000e+02 0.000000000000000000e+00 0.000000000000000000e+00 0.000000000000000000e+00 0.000000000000000000e+00 0.000000000000000000e+00 6.223851403171044155e-02 8.350087135090420581e-03 3.760485946913821875e-02 5.498033150959438786e-03 -6.688309549961281297e-02 -3.162109955439703496e-02 2.894620317849249530e-02 -1.797237046838216605e-03 2.974752590570098332e-02 -2.515576766701990707e-01 -4.918607662948516757e-02 2.138362238479874292e-02 -2.309444885879281123e-02 -6.333970084163043079e-02 -1.176876499476520038e-01 4.496111922236399605e-02 -4.097203211603790002e-02 -7.389970517633354108e-02 -4.112881960513641022e-02 -3.927155083366396654e-02 2.475100832576659568e-02 1.574815528574940136e-03 -2.815427224865296382e-02 -1.539411210074458254e-02 -1.191526702556696456e-03 -8.728086328535705068e-03 -2.754740403024540703e-03 2.103785665478945330e-04 -1.117582982898471244e-02 -6.657192564609645639e-03 -1.986776843761638243e-03 -3.840510780472837504e-03 4.976778533421412788e-04 -1.657993933349991358e-02 -5.551707336814266924e-03 -2.016330076196883037e-01 -6.474024426921634601e-02 -8.531681657980073885e-02 1.851616691364776912e-01 1.641232418301286078e-02 -3.729437839382395564e-03 -6.778771552667796352e-02 -1.464579914648707348e-02 9.543167738144499312e-02 -8.317193824151000725e-02 -4.320408096566272227e-02 -1.323078095547350341e-01 4.057779982179617051e-02 -8.548943263829122952e-02 -3.306472432826655650e-02 1.515927863647548723e-01 0.000000000000000000e+00 0.000000000000000000e+00 0.000000000000000000e+00 5.270768805003212707e-16 -4.387394799709372804e-16 0.000000000000000000e+00 3.007396021772962858e-16 -4.407996707120218536e-16 0.000000000000000000e+00 1.385663567577023261e-15 -7.012849841753373507e-16 3.065549986886940779e-16 0.000000000000000000e+00 0.000000000000000000e+00 0.000000000000000000e+00 0.000000000000000000e+00 -3.467827493073151767e-16 -3.083625110295065601e-16 0.000000000000000000e+00 2.566859071059480854e-16 -1.235002253486380967e-15 1.385663567577023261e-15 -7.012849841753373507e-16 3.065549986886940779e-16 0.000000000000000000e+00 2.358980124689853520e-16 -1.530412375106812427e-16 0.000000000000000000e+00 3.352664090855882612e-16 1.754209553181667077e-16 0.000000000000000000e+00 1.738257605488312696e-16 -1.502150056539890954e-15 1.385663567577023261e-15 -7.012849841753373507e-16 3.065549986886940779e-16 0.000000000000000000e+00 0.000000000000000000e+00 0.000000000000000000e+00 0.000000000000000000e+00 2.576739102325989809e-16 -1.326670292518762925e-15 0.000000000000000000e+00 6.358251774514652344e-16 -3.698076910338757872e-16 1.385663567577023261e-15 -7.012849841753373507e-16 3.065549986886940779e-16 0.000000000000000000e+00 0.000000000000000000e+00 0.000000000000000000e+00 0.000000000000000000e+00 -5.549803614431505529e-16 -8.287568002711568010e-16 0.000000000000000000e+00 1.386027359781356200e-15 -9.414740454748405768e-16 7.773355483801984434e-02 5.007629535464099696e-03 1.714875489247749130e-01 3.308938173131450305e-02 1.691270330353489976e-02 -1.268158794595048156e-01 5.999328354377664319e-03 3.010964324193497743e-02 1.984501666670576425e-01 -1.932441016950049162e-01 5.978891389910282947e-03 1.472665589114081908e-01 0.000000000000000000e+00 0.000000000000000000e+00 0.000000000000000000e+00 6.280419785771298437e-17 -1.429301857011284580e-16 0.000000000000000000e+00 -2.064152241873309585e-16 1.370826962448287788e-16 0.000000000000000000e+00 6.968839187167157203e-17 1.520954267135959097e-16 2.704218652942094450e-16 0.000000000000000000e+00 0.000000000000000000e+00 0.000000000000000000e+00 0.000000000000000000e+00 -1.401743298465457499e-16 -2.694702356682165373e-16 0.000000000000000000e+00 2.108336396120879560e-16 1.790960798690400741e-16 6.968839187167157203e-17 1.520954267135959097e-16 2.704218652942094450e-16 0.000000000000000000e+00 3.912032315103475048e-17 -5.570163288160913557e-16 0.000000000000000000e+00 -7.331987887593446327e-16 -7.292644459615276230e-17 0.000000000000000000e+00 2.196170751555917608e-16 4.774176927015424332e-17 6.968839187167157203e-17 1.520954267135959097e-16 2.704218652942094450e-16 0.000000000000000000e+00 0.000000000000000000e+00 0.000000000000000000e+00 0.000000000000000000e+00 -8.091395554864919263e-17 -5.792646911118003336e-17 0.000000000000000000e+00 -1.026259230942575162e-15 1.325510008014686495e-16 6.968839187167157203e-17 1.520954267135959097e-16 2.704218652942094450e-16 0.000000000000000000e+00 0.000000000000000000e+00 0.000000000000000000e+00 0.000000000000000000e+00 -6.141758793337111241e-16 -5.096185477204264242e-16 0.000000000000000000e+00 -8.914953249108745387e-16 2.391069599325394842e-16
6.000000000000000000e+02 0.000000000000000000e+00 0.000000000000000000e+00 0.000000000000000000e+00 0.000000000000000000e+00 0.000000000000000000e+00 6.712431857091914755e-02 2.387218990302499011e-02 6.074443087225609578e-02 1.589900099679788289e-03 -6.709480568658821031e-02 -4.715714061994426970e-02 3.688615235906857887e-02 -9.489651050660167023e-03 3.537503933994981531e-02 -2.282923094198176794e-01 -4.780967199565893527e-02 -5.719247121256853736e-03 -2.473663905181353040e-02 -6.787247682615457633e-02 -1.292114547899693433e-01 6.816206323208995332e-02 -3.470455637922894437e-02 -9.045049672865676516e-02 -3.198850339233111351e-02 -2.911149686129703429e-02 4.979578856378039792e-02 1.434648662528154213e-02 -1.874831044496994351e-02 -3.505954396496679254e-02 1.666978023457251065e-03 -7.105945630742621991e-03 -6.825977551960351122e-03 5.137481620188798052e-03 -7.702172120455905852e-03 -1.487397225555956055e-02 -2.067703099992971097e-03 -4.797531131478374906e-03 2.671243796122747599e-04 -1.172195275408584834e-02 -3.054936394311097425e-02 -1.667076406259015431e-01 -5.933357977765903180e-02 -8.232185953167518722e-02 1.452289177736451886e-01 3.773729475754838275e-03 -1.048155848046524244e-02 -3.158343263539563350e-02 -1.476403488369192607e-01 6.081135920451126442e-02 -2.371367303298100304e-01 -1.239597871088921749e-03 -1.257559997723361744e-01 2.401015083093698682e-02 -8.422020308615020545e-02 -4.846537350126013666e-02 1.650734979053257168e-01 0.000000000000000000e+00 0.000000000000000000e+00 0.000000000000000000e+00 4.027659492029694290e-16 -6.221131393208312808e-16 0.000000000000000000e+00 3.314879020877980608e-16 -6.793273514175930262e-16 0.000000000000000000e+00 1.514634532083596117e-15 -7.569039401086923256e-16 4.320443100547751768e-16 0.000000000000000000e+00 0.000000000000000000e+00 0.000000000000000000e+00 0.000000000000000000e+00 -3.101174262906562328e-16 -2.933794287332194996e-16 0.000000000000000000e+00 3.791423742799715969e-16 -1.143333886934983379e-15 1.514634532083596117e-15 -7.569039401086923256e-16 4.320443100547751768e-16 0.000000000000000000e+00 2.045177992286253997e-16 -1.147410297570379446e-16 0.000000000000000000e+00 4.709339093698205647e-16 1.542647063114134444e-16 0.000000000000000000e+00 1.386096071190437302e-17 -1.233272267952655691e-15 1.514634532083596117e-15 -7.569039401086923256e-16 4.320443100547751768e-16 0.000000000000000000e+00 0.000000000000000000e+00 0.000000000000000000e+00 0.000000000000000000e+00 8.809829154263940732e-17 -1.451313951679009567e-15 0.000000000000000000e+00 4.429860492116738411e-16 -2.807306797788385104e-16 1.514634532083596117e-15 -7.569039401086923256e-16 4.320443100547751768e-16 0.000000000000000000e+00 0.000000000000000000e+00 0.000000000000000000e+00 0.000000000000000000e+00 -4.781325725278846270e-16 -7.812031597750441607e-16 0.000000000000000000e+00 1.264022562055724888e-15 -8.963267118258608808e-16 1.206868323462792075e-01 2.749478847893926936e-02 2.518867845205428613e-01 5.474439131742370179e-02 1.597548606173623126e-02 -1.794620074689751710e-01 8.985437544702942758e-02 4.289311191832426845e-02 2.276933651760838229e-01 -1.951701833576842682e-01 -4.015648585841324891e-02 2.647189622058574443e-01 0.000000000000000000e+00 0.000000000000000000e+00 0.000000000000000000e+00 -5.631071734878977688e-17 -1.096264191552107274e-16 0.000000000000000000e+00 -4.364929181542608094e-16 3.064734726300714233e-16 0.000000000000000000e+00 -1.725897593308042443e-16 1.687810280875218994e-16 2.077150902966011715e-16 0.000000000000000000e+00 0.000000000000000000e+00 0.000000000000000000e+00 0.000000000000000000e+00 -1.651892507228765511e-16 -2.835507607664157948e-16 0.000000000000000000e+00 2.577215346286505275e-16 5.834905673230267844e-17 -1.725897593308042443e-16 1.687810280875218994e-16 2.077150902966011715e-16 0.000000000000000000e+00 6.811414990485915063e-17 -5.443674695369332947e-16 0.000000000000000000e+00 -5.712615186007522108e-16 -9.226192382572688067e-17 0.000000000000000000e+00 2.362967530723075002e-16 -9.005761569531877851e-17 -1.725897593308042443e-16 1.687810280875218994e-16 2.077150902966011715e-16 0.000000000000000000e+00 0.000000000000000000e+00 0.000000000000000000e+00 0.000000000000000000e+00 -1.018521792516085174e-16 -1.316329606385025777e-16 0.000000000000000000e+00 -8.286311064103022698e-16 1.081811206064766314e-16 -1.725897593308042443e-16 1.687810280875218994e-16 2.077150902966011715e-16 0.000000000000000000e+00 0.000000000000000000e+00 0.000000000000000000e+00 0.000000000000000000e+00 -5.971403747152212208e-16 -5.345677243343551671e-16 0.000000000000000000e+00 -9.204990119368158793e-16 2.025116597275998292e-16
